<svg width="751" height="274" viewBox="0 0 751 274" fill="none" xmlns="http://www.w3.org/2000/svg">
<path fill-rule="evenodd" clip-rule="evenodd" d="M133.514 129.398C125.316 130.932 117.621 133.154 110.681 136.269C109.925 136.612 109.696 137.093 109.628 137.299C109.513 137.666 109.559 138.009 109.742 138.33C109.857 138.536 110.04 138.788 110.429 138.948C110.704 139.063 111.414 139.154 112.353 139.131C113.956 139.109 116.43 138.925 117.621 138.925C121.697 138.971 125.774 138.948 129.85 139.017C142.836 139.246 145.103 139.429 161.798 139.292C181.288 139.131 200.824 138.856 220.336 138.444C158.318 141.88 96.3903 145.887 34.7837 149.62C34.0966 149.666 33.5699 150.262 33.6157 150.949C33.6386 151.659 34.2568 152.186 34.9439 152.14C178.7 143.437 324.037 133.177 468.893 132.513C476.038 132.673 483.16 132.833 490.26 132.994C533.156 134.001 576.074 135.215 618.924 137.093C632.871 137.711 646.819 138.398 660.789 139.04C664.911 139.223 669.057 139.406 673.202 139.589C676.546 139.727 685.157 140.231 686.37 140.254C687.47 140.276 687.745 139.292 687.768 139.246C687.836 138.925 687.79 138.559 687.516 138.215C687.447 138.124 687.264 137.872 686.851 137.757C686.783 137.757 686.462 137.711 685.798 137.643C651.353 134.826 616.817 132.879 582.212 131.642C586.861 131.688 591.51 131.711 596.159 131.757C632.001 132.032 667.934 133.017 703.753 131.757C711.906 131.482 720.082 131.161 728.213 130.772C733.686 130.52 747.771 130.841 749.763 130.245C750.679 129.993 750.885 129.352 750.908 129.032C750.931 128.665 750.863 128.253 750.45 127.886C750.267 127.703 749.695 127.406 748.618 127.177C713.464 119.55 672.331 121.703 636.536 119.573C539.316 113.733 442.44 117.626 345.244 121.176C261.354 124.245 177.463 124.405 93.619 128.574C62.9302 130.085 31.2797 128.345 1.02608 134.116C0.339013 134.253 -0.0962711 134.894 0.0182392 135.581C0.155652 136.269 0.819868 136.727 1.50693 136.589C31.6231 130.841 63.1593 132.604 93.7336 131.093C106.994 130.429 120.254 129.879 133.514 129.398ZM392.88 131.093C341.511 130.291 290.142 129.879 238.727 130.131C203.458 130.291 152.065 123.581 117.025 136.406C117.277 136.406 117.483 136.406 117.666 136.406C121.743 136.452 125.819 136.406 129.896 136.498C142.859 136.727 145.126 136.91 161.776 136.772C204.351 136.406 247.04 135.49 289.592 134.07C324.06 132.925 358.482 131.894 392.88 131.093ZM740.373 128.138C707.143 122.321 669.469 124.062 636.375 122.092C539.247 116.252 442.44 120.146 345.336 123.695C301.936 125.299 258.56 126.1 215.206 127.085C223.52 127.406 231.467 127.634 238.727 127.612C312.219 127.245 385.689 128.23 459.182 129.787C504.826 129.1 550.47 128.848 596.182 129.215C632.001 129.513 667.865 130.475 703.684 129.238C711.815 128.963 719.968 128.642 728.098 128.253C730.869 128.138 735.885 128.161 740.373 128.138Z" fill="black"/>
</svg>
